<svg viewBox="0 0 500 500" xmlns="http://www.w3.org/2000/svg"><g fill="#fff"><circle cx="138.47" cy="335.78" r="34.29"/><circle cx="359.9" cy="335.78" r="34.29"/><path d="m330.26 297.3c-9.72-.42-18.43-.42-26-.2-34.17 1-53.69 6.82-53.88 6.88a7 7 0 0 1 -7.38-11.24l21.31-25c-47.19 5.61-82.85 15.09-106.9 23.27a48.59 48.59 0 0 1 29.63 44.75h124.28a48.5 48.5 0 0 1 18.94-38.46z"/><path d="m120.23 290.75c18.1-8.7 70.94-30.51 160.16-38.77a7 7 0 0 1 6 11.51l-19.48 22.83a307.1 307.1 0 0 1 36.26-3.19c29.95-.95 76.62 1.56 134.28 17.76.1-1.11.16-2.23.16-3.36v-45.69a13.54 13.54 0 0 0 -13.61-13.54h-7.9l6.06-13.24h4a11.41 11.41 0 0 0 11.4-11.4v-11.95a5.17 5.17 0 0 0 -5.17-5.17h-39.39a5.16 5.16 0 0 0 -5.17 5.17v11.95a11.4 11.4 0 0 0 11.4 11.4h2l-6.05 13.24h-26.32l-57.32-36.55a33.24 33.24 0 0 0 -17.86-5.21h-58.68a33.15 33.15 0 0 0 -15.3 3.73c-13.18 6.87-40.89 22.24-57.12 38h-20.8a79.2 79.2 0 0 0 -79.2 79.2v18.28h27.31a48.58 48.58 0 0 1 30.34-45z"/><path d="m398.09 305.76a48.35 48.35 0 0 1 10.36 28.91 38.28 38.28 0 0 0 25.22-20.29c-12.41-3.49-24.3-6.33-35.58-8.62z"/></g></svg>