<svg viewBox="0 0 500 500" xmlns="http://www.w3.org/2000/svg"><g fill="#fff"><path d="m313.68 215.29c-.19 5.81-4.1 17.88-8.83 29.34-2.54 6.14-11.69 4.22-11.59-2.42 1-65-27.36-100-72.62-126.49 0 0 2.31 50.82-18.48 78s-65.25 67-59.48 124.14c4.15 41 32.15 71.93 63.41 85.15-13-9.73-22-24.71-22.26-42.83-.43-32.67 17.33-59 17.33-59 .16 4.9-.77 20.64 5.78 32.46 2.63 4.77 10 2.49 9.58-2.94-3.26-44.3 11.8-71.86 39.14-87.84 0 0-1.36 29.76 10.82 45.66s38.22 39.23 34.84 72.71a60.93 60.93 0 0 1 -25.67 43.46c36.83-12.29 67-45.19 67.61-88.65.74-55.82-29.58-100.75-29.58-100.75z"/><path d="m380.31 156.21h-24.57v-24.57h-24.93v24.57h-24.57v24.94h24.57v24.57h24.93v-24.57h24.57z"/></g></svg>