<svg enable-background="new 0 0 300 300" viewBox="0 0 300 300" xmlns="http://www.w3.org/2000/svg"><g fill="#fff"><path d="m201.6 203.7h-90l44.5-60.8c.2-.3.7-.3 1 0z"/><circle cx="101.2" cy="130.3" r="20.3"/><path d="m230.8 122.5h-8.3c-1 0-1.8.8-1.8 1.8v77.3c0 1-.8 1.8-1.8 1.8h-155.7c-1 0-1.8-.8-1.8-1.8v-40.4-65.2c0-1 .8-1.8 1.8-1.8h77.5 10.5 49.7c1 0 1.8-.8 1.8-1.8l-.7.6c0-1-1-3.2 0-3.2l15.4.8c1 0 1.8-.8 1.8-1.8v-11.2c0-1-.8-1.8-1.8-1.8h-66.3-10.5-79.2-16.6c-1 0-1.8.8-1.8 1.8v16.6 67 42.2 41.4c0 1 .8 1.8 1.8 1.8h192.5c1 0 1.8-.8 1.8-1.8v-138c0-1-.8-1.8-1.8-1.8h-2.9c-1 0-1.8.8-1.8 1.8v14.1c0 .8-.8 1.6-1.8 1.6z"/><path d="m232.6 75.8h6.5v14.8h-6.5z"/><path d="m227.3 53.5c-25.6-.8-46.5 20.1-45.6 45.6.7 23.1 19.6 42 42.7 42.7 25.6.8 46.5-20.1 45.6-45.6-.6-23.1-19.5-41.9-42.7-42.7zm21 51.4h-15.7v16.8c0 .5-.4.8-.8.8h-11.8c-.5 0-.8-.4-.8-.8v-16.8h-15.7c-.5 0-.8-.4-.8-.8v-12.7c0-.5.4-.8.8-.8h15.7v-16.8c0-.5.4-.8.8-.8h11.7c.5 0 .8.4.8.8v16.8h15.7c.5 0 .8.4.8.8v12.6c.2.5-.2.9-.7.9z"/></g></svg>