<svg enable-background="new 0 0 390.2 123.4" height="123.4" viewBox="0 0 390.2 123.4" width="390.2" xmlns="http://www.w3.org/2000/svg"><g fill="#fff"><path d="m104.8 65.8 39.5-34.3-20.9 34.3h21.8l29.2-56.3h-4.7-12-9.5l-68.6 56.3z"/><path d="m176.3 65.8 29.2-56.3h-21.9l-29.1 56.3z"/><path d="m207.4 65.8 14.1-27.3 2.9 27.3h18.3 3.6l10.1-19.6c1.6-3 5.2-10 7.6-14.7-6.1-1.6-12.9 2.4-17.1 7.9 4.1-8.1 13.5-13.4 21.9-13.4 4.2 0 7.4.4 10.6.9l-20.1 38.8h21.9l18.7-36.2c1.2 0 2.4.1 3.7.1 29.8 0 32-29.6 32-29.6s-10.6 11.2-47.3 7.7c-14.6-1.4-24.9-.2-31.9 3.6-7.7 4.2-11.8 15.5-14.3 20.3l-2.6 5-3-27.2h-18.1-3.7l-29.2 56.3z"/><path d="m52.2 65.8 9.5-18.3h19.2c15.3 0 26.3-5 31.6-17.5 5.2-12-4.1-20.5-14.4-20.5-4.3 0-10.7 0-16.7 0h-1.7-20.3l-7.1 13.2h22.3 12.1c4.9 0 6.6 2.4 5 5.8-1.8 3.9-6.4 5.8-12.8 5.8-2.4 0-8.1 0-10.3 0l6-11.7c-10.6 0-21.9 1.9-30.5 16.8h-.1l-1 1.9-12.7 24.5z"/><path d="m150 74.5-24.8 47.9h21.8l24.9-47.9z"/><path d="m293.4 104.1h23.8l5.9-11.3h-23.9l3.7-7.1h25.7l5.8-11.2h-28.8-14.7-3.9l-24.9 47.9h11.8 6.8 30.9l5.8-11.2h-27.7z"/><path d="m376.7 74.5c-3.7 0-10.9 0-16 0h-1.4-17.7l-6 11.2h22.2 6.1c4.2 0 5.6 2 4.3 5-1.5 3.3-5.5 5-10.9 5-1.6 0-2.3 0-4.6 0l5.1-9.9c-9 0-21.9 1.6-29.1 14.3h-.1l-.8 1.6-10.9 20.7h21.8l4.2-8.2 2.1-4.2 1.7-3.3h4.4l3.6 15.6h20.4l-5.1-16.3c8.8-1.6 15.4-6 18.9-14.2 4.4-10.1-3.5-17.3-12.2-17.3z"/><path d="m70.5 87.9c2.9-8-4.4-13.4-12.2-13.4-3.7 0-9.1 0-14.2 0h-1.4-18.1l-6 11.2h22.2 7.6c2.9 0 4.3 1.3 3.6 3.4-.9 2.6-3.3 3.3-6.9 3.3-2 0-5.1 0-7.8 0l3.5-6.7c-9 0-21.9 1.6-29.2 14.3h-.1l-11.5 22.4h19 19.1c13 0 23.4-2.5 26.6-12.3 1.8-5.4-1.2-10.5-7-11.6 4.8-1.5 10.6-4.5 12.8-10.6zm-25.9 19.3c-1.2 3.5-4.1 4-9.6 4-2 0-5 0-7.4 0l2.2-4.3 2-3.9h8.6c3.1 0 5.1 1.7 4.2 4.2z"/><path d="m247.4 74.5c-2.4 0-5.7 0-7.4 0h-8.8-.2-9.6l-12.2 23.5-1.9 3.7c-2.6 5.4 2 8.6 6.6 9.6-11.9 0-25.8 0-30.2 0l19-36.8h-21.8l-24.7 47.9h18.3 1.1 57c16.6 0 29.7-7.3 35.1-21.5 4.4-11.5-2.3-26.4-20.3-26.4zm-.7 24.9c-3.6 8.1-9.2 11.9-19.6 11.9-.5 0 .2 0-3.2 0l2.3-4.5 3.4-6.6 7.5-14.5h2.8c5.6 0 10.8 4.7 6.8 13.7z"/><path d="m140.5 74.9h-20.8l-12.1 23.5c-2.6 5.2-4.3 8.1-6.4 10.5-2.1 2.2-4.4 3.1-6.7 3.1-1.4 0-3.2-.7-4.2-2.1-.9-1.1-1.3-3.7 0-6.9 1.1-2.6 14.2-28.2 14.2-28.2h-19.7l-14.3 27.8c-.3.7-1.4 2.9-2.2 5.5-1 3.5 0 7.3.9 8.7 2.5 3.9 9.1 6.6 20.3 6.6 9.9 0 21.8-1.3 30.1-10.7 2.6-2.9 5-7.2 5.4-7.9z"/></g><path d="m345.5 31.2h-21.6v12.8h12.9l-9 9 9 9 8.7-8.7v12.3h12.8v-21.6-12.8z" fill="#ff1f3d"/><path d="m358.3 44.1h21.7v-12.8h-12.9l9-9-9.1-9-8.7 8.7v-12.3h-12.7v21.6 12.8z" fill="#279af0"/><path d="m345.6 31.3v12.8h12.7v-.1-12.8z" fill="#935d97"/></svg>