<svg viewBox="0 0 500 500" xmlns="http://www.w3.org/2000/svg"><g fill="#fff"><path d="m201.38 199.06a110.29 110.29 0 0 1 -42.24 2.83q-5.46-20-10.91-40a110.33 110.33 0 0 0 42.25-2.89z"/><path d="m250.62 221.91c-12.68 6.1-25.54 11.52-39 14.93l-10.9-40.05c13.41-3.41 26.27-8.84 38.95-14.94z"/><path d="m278.19 165.15c-12.68 6.1-25.17 12.87-37.85 19q-5.46-20-10.9-40.05c12.68-6.1 25.17-12.87 37.85-19z"/><path d="m327.43 188c-13.41 3.41-26.27 8.83-38.95 14.93l-10.9-40.05c12.67-6.1 25.54-11.52 38.95-14.93z"/><path d="m359.39 147.38a110.29 110.29 0 0 0 -42.24 2.83l-10.91-40.05a110.35 110.35 0 0 1 42.25-2.83q5.51 20.03 10.9 40.05z"/><path d="m222.57 276.89a110.32 110.32 0 0 1 -42.25 2.84q-5.44-20-10.9-40.06a110.33 110.33 0 0 0 42.25-2.83z"/><path d="m271.81 299.74c-12.68 6.1-25.54 11.53-39 14.94l-10.81-40.05c13.41-3.41 26.28-8.84 39-14.94q5.36 20.03 10.81 40.05z"/><path d="m299.38 243c-12.68 6.1-25.18 12.87-37.86 19q-5.44-20-10.9-40c12.68-6.1 25.18-12.88 37.86-19z"/><path d="m348.62 265.83c-13.42 3.41-26.28 8.84-39 14.94l-10.9-40c12.68-6.1 25.54-11.53 38.95-14.94z"/><path d="m380.58 225.22a110.33 110.33 0 0 0 -42.25 2.83l-10.9-40.05a110.33 110.33 0 0 1 42.25-2.83q5.45 20.03 10.9 40.05z"/><path d="m149.64 163.74h14.21v232.04h-14.21z" transform="matrix(.96487908 -.26269442 .26269442 .96487908 -67.97 50.99)"/></g></svg>