<?xml version="1.0" encoding="utf-8"?>
<!-- Generator: Adobe Illustrator 26.3.1, SVG Export Plug-In . SVG Version: 6.00 Build 0)  -->
<svg version="1.1" id="Layer_1" xmlns="http://www.w3.org/2000/svg" xmlns:xlink="http://www.w3.org/1999/xlink" x="0px" y="0px"
	 width="500px" height="500px" viewBox="0 0 500 500" style="enable-background:new 0 0 500 500;" xml:space="preserve">
<style type="text/css">
	.st0{fill:#FFFFFF;}
	.st1{fill:#808080;}
</style>
<g>
	<path class="st0" d="M250,490c-64.1,0-124.4-25-169.7-70.3C35,374.4,10,314.1,10,250S35,125.6,80.3,80.3S185.9,10,250,10
		s124.4,25,169.7,70.3C465,125.6,490,185.9,490,250s-25,124.4-70.3,169.7C374.4,465,314.1,490,250,490z"/>
	<path class="st1" d="M250,20c31.1,0,61.2,6.1,89.5,18.1c27.4,11.6,52,28.2,73.1,49.3s37.7,45.7,49.3,73.1
		c12,28.3,18.1,58.5,18.1,89.5s-6.1,61.2-18.1,89.5c-11.6,27.4-28.2,52-49.3,73.1c-21.1,21.1-45.7,37.7-73.1,49.3
		c-28.3,12-58.5,18.1-89.5,18.1s-61.2-6.1-89.5-18.1c-27.4-11.6-52-28.2-73.1-49.3c-21.1-21.1-37.7-45.7-49.3-73.1
		C26.1,311.2,20,281.1,20,250s6.1-61.2,18.1-89.5c11.6-27.4,28.2-52,49.3-73.1s45.7-37.7,73.1-49.3C188.8,26.1,218.9,20,250,20
		 M250,0C111.9,0,0,111.9,0,250s111.9,250,250,250s250-111.9,250-250S388.1,0,250,0L250,0z"/>
</g>
<path d="M111.1,118.2c5.8-2.6,12.2-1.3,16.6,3.2l26.9,26.9c26.2-25.6,62.1-41.6,100.5-41.6c78.7,0,143.4,64.6,143.4,143.4
	s-64.6,143.4-143.4,143.4c-33.3,0-65.9-11.5-91.5-33.3c-7-5.1-7.7-14.7-1.9-21.8c5.1-6.4,14.7-7,21.1-1.9
	c20.5,17.3,46.1,26.2,72.3,26.2c62.1,0,112.6-50.6,112.6-112.6s-50.6-112.6-112.6-112.6c-30.1,0-58.2,12.2-78.7,32.6l33.3,33.3
	c4.5,4.5,5.8,10.9,3.2,16.6s-7.7,9.6-14.1,9.6h-81.9c-8.3,0-15.4-7-15.4-15.4v-81.9C101.5,125.8,105.4,120.7,111.1,118.2z"/>
</svg>
