<svg enable-background="new 0 0 435 257" viewBox="0 0 435 257" xmlns="http://www.w3.org/2000/svg"><path d="m0 .2h435v257h-435z" fill="#d3d3d3"/><g fill="#eaeaea"><path d="m187.1 75.8c-5.5 0-11.4-.1-16.8.6l.7-.1c-8.7 2.3-109.2 4.5-74.1 24.4-1.2.5-2.2 1.3-3.5 1.8l.7-.2c-4.5 2.1-9.1 5-13.6 7.2-3-7-8.3-12.7-12.6-18.9 2.5-.2 6.2-1.3 5.3-4.8-.3-2.2-.2-5.7-3.3-5.9-11.2 1.3-23.1 1.3-34.3 2.7-5.4-2.5-3.6 11.1.9 7.8 5.1.9 10.5.3 15.7.4 5.4 8.2 8.7 17.6 13.4 26.2-7.1 4.4-14.6 8.2-21.9 12.2-3.9 1.5-4.4 4-4.4 7.7-6.7.2-9.2 1.7-8.7 8.8-.6 5.4 5.9 5.1 9.6 4.8 1 6.2-.5 13.4 1.5 19.2 8.2 5.4 21.2.9 30.7 1.2 1 1.3 3.5.6 3.3-1.3 1.3-1.6.3-4.2-1.7-4.5-13.7-48.2 63.8-61.1 61.6-8.4.2 3.9-7.4 12.3.4 12.1 52.6-1.4 105.4 1.8 158 .8.6 3.1 5.6 2.4 5.5-.7-.4-4.4-1.8-8.8-2.9-13.1-14-36.7 34.4-54.3 55.6-27.5 6.7 9 11.1 22.5 5 32.8-1.6 1.6-5.5 3-3.1 5.8 14.9 1.7 31.8 2.5 47 .2 9.6.5 2.5-13.3 1.2-18.2-2.6-6-3.3-12.9-6.1-19v.1c-1.3-3.1-2.4-6.2-3.7-9.3 2.5-8.9-48.7-9-57.2-12.6h.1c-12.9-1.9-26-3.6-39.1-4-32.7-19.3-71.5-26.1-109.2-28.3z"/><path d="m102.7 128c-3.1.1-5.8.4-8.6 1.6-3.2-2.9-8 2.6-10.4 4.7-7.8 10-8.1 21.4-1.5 32.1-1.7 2.2 1 4.2 2.2 5.9 6.6 6.8 16.9 8.9 26 7.3h-.3c18.2-2.8 23.6-27 13.8-40.4l.1.2c-1.5-1.9-2.8-3.3-4.7-4.7l-.3.4c-4.7-3.8-10.2-6.7-16.3-7.1z"/><path d="m323 122.9c-4.3.3-8.3 1.2-12.3 2.6h.1c-19.2 8.3-12.9 38.5 3 47 17.7 8.3 40.2-4.5 36-25.3v.1c-.9-9.6-7.2-19.2-16.4-22.8l.2.1c-3.1-1.6-5.4-2.2-8.5-2.1-.6.5-1.3.4-2.1.4z"/></g><path d="m72.3 80.7c-.9 1.1-.3 9.1 2 8.6 3.2-.5.9-5 1-7.2 0-1.4-1.9-2.5-3-1.4z"/><path d="m67.9 89.4c-.8 0-1.6.8-1.6 1.6.3 2.6 3.9 1.3 5.7 1.7 2.1 0 2.1-3.2 0-3.2-1.4.1-2.7-.2-4.1-.1z"/><path d="m69.9 93.9c-2.2.9 3 8.5 4.7 7.3 1.7-1.3-.4-3-1.1-4.3-1-1.1-1.6-4-3.6-3z"/><path d="m76.6 102.8c-2.7 1 3.6 9.3 5.3 7.8 2.6-2.1-2.1-5.1-3-7.2-.6-.9-1.5-1.1-2.3-.6z"/><path d="m55 92.5c-2.8 1.1.4 5.6 1.3 7.3 1.2.7 2.7-.4 2.4-1.7-1.1-1.7-1-5.1-3.3-5.6-.1-.1-.3-.1-.4 0z"/><path d="m58.4 102.5c-2.2 1.3 1.3 7.3 3.5 5.9 2.3-1.2-1.3-7.6-3.5-5.9z"/><path d="m63.4 112.3c-2.4 1.2 1.9 9.4 3.8 5-.2-1.7-1.3-6.3-3.8-5z"/><path d="m47.4 89.3c-1.5 0-1.6 2.4 0 2.4 1.3-.2 3.8.7 3.9-1.2-.1-1.9-2.7-1-3.9-1.2z"/><path d="m41.4 89.5c-1.8.4-3.8 0-5.4 1-3.2 5.5 12 2.1 5.4-1z"/><path d="m29.7 84c.4 1.8-.6 5.3 1.9 5.6 2.7-.3 1.3-3.8 1.4-5.6-.1-2.1-3.3-2-3.3 0z"/><path d="m40.8 80.4c-1.5.2-4.2-.3-4.4 1.7.2 2.3 2.9 1.3 4.4 1.3 1.9 0 1.9-2.9 0-3z"/><path d="m47.4 81.5c.3 3.7 13.1 1.6 6.9-1.5-2.1.7-6.4-1.5-6.9 1.5z"/><path d="m62.5 80.7c.1 2.4 5.9 2.6 6 .1.1-2.3-6.1-2.5-6-.1z"/><path d="m59.5 119.8c-1.8 1.6-6.9 2.1-6.3 5.1 2.3 1.9 5.2-2.2 7.7-2.8 1.6-.9.1-3.4-1.4-2.3z"/><path d="m46.7 126.8c-1.4 1.3-5.7 2.3-4.5 4.8 1.8 2.3 4.3-1.1 6.2-1.8 1.9-1 .2-4.3-1.7-3z"/><path d="m38.4 132.2c.2 1.5-.4 3.2.5 4.5 3.1 1.8 2.3-2.8 2.3-4.5 0-1.8-2.8-1.8-2.8 0z"/><path d="m36.4 137.7c-1.8.6-5.5-.4-5.7 2.1-.2 3.6 11.7.1 5.7-2.1.1 0 .1 0 0 0z"/><path d="m28.9 143.7c.6 1.8-1.1 5.8 1.5 6.3 2.6-.6.9-4.3 1.2-6.3.1-1.8-2.9-1.9-2.7 0z"/><path d="m32.9 149.7c-2.8 3.3 6.5 4.6 6.5 1.5.2-2.2-5.3-2.2-6.5-1.5z"/><path d="m38.7 156.6c.2 1.4-.2 3 .7 4.2 1 1.1 2.9.2 2.9-1.2-.3-1.6.7-4.5-1.8-4.7-1 .1-1.8.8-1.8 1.7z"/><path d="m39.6 164.3c.4 1.9-1.3 5.7 1.3 6.2 2.6-.5.9-4.3 1.5-6.2 0-1.8-2.8-1.8-2.8 0z"/><path d="m45.5 170.6c-2.6 2.8 7 4.1 6.8 1.5-.5-2.4-4.1-1.2-5.9-1.8-.3-.2-.7 0-.9.3z"/><path d="m63.7 169.2c-2.2.8-6.8-.5-7.4 2.2.6 3.1 5.2.5 7.4 1 2 0 2.1-3.2 0-3.2z"/><path d="m75 168.7c-2.5.1-8.1.9-4.7 4.3 2.9 1.2 10.4-1.8 4.8-4.2 0-.1 0-.1-.1-.1z"/><path d="m70.7 157.4c.5 1.7-.5 5.4 1.8 5.6 1.6-1.1-.2-3.9.1-5.7 0-1.4-2-1.2-1.9.1zm2.2 2.9c.1.1.1.1 0 0z"/><path d="m72.5 144.3c-.1 1-.7 2.1-.3 3.1.5 1 2 .8 2.2-.2.1-1.2 1.3-3.2-.4-3.7-.6-.1-1.2.1-1.5.8z"/><path d="m78.5 131.4c-1.4 1-4.5 4.9-2.6 6.4 2.5 1 2.8-2.9 4.2-4.2.5-1-.2-2.2-1.3-2.2-.1-.1-.2-.1-.3 0z"/><path d="m89 123.2c-1.4.9-5 1.5-4 3.8 1.3 2.4 9.3-3.4 4-3.8z"/><path d="m98.4 121c-1.7 0-1.7 2.6 0 2.6 1.7-.3 4.8 1 5.2-1.3-.4-2.3-3.5-1-5.2-1.3z"/><path d="m110.5 122.4c-3.1 3 4 3.6 5.8 4 4-2.7-3.7-4.8-5.8-4z"/><path d="m122.5 128.1c-1.8 1.7 3.6 6.8 5.3 5.2 1.7-1.5-3.7-7-5.3-5.2z"/><path d="m132.4 139.2c-1.8.6-.4 2.9-.4 4.3.4 1.3.1 4 2.1 3.6 1.9 0 .3-8.4-1.4-7.9 0-.1-.1-.1-.3 0z"/><path d="m133.1 154.1c-.8 1.7-1.9 8.2 1.7 6.3.8-1.7 1.9-8.1-1.7-6.3z"/><path d="m131.3 165.9c-.2 1.6-2.1 3.8-.5 5 2.3.9 2.4-2.9 3.1-4.3.5-1.7-2.2-2.3-2.6-.7z"/><path d="m135 169.7c.8 2.9 5.2 1.1 7.6 1.5.8 0 1.4-.6 1.4-1.4-.9-2.8-5.2-1-7.5-1.6-.8 0-1.5.7-1.5 1.5z"/><path d="m151.7 167.2c-1.6.3-4.8-.6-4.7 1.7 1.2 2.6 5.4.3 7.7 1 1.9.5 2.6-2.2.7-2.6-1.2-.2-2.5-.1-3.7-.1z"/><path d="m160.4 167.8c-.3 2.7 10.5 2.6 6.1-.4-1.9.3-5.1-1.6-6.1.4z"/><path d="m173.8 167.1c-3 2.9 6.2 3.3 6.4 1.4.2-2.4-4.9-1.4-6.4-1.4zm1.6-.1h.2s-.1 0-.2 0z"/><path d="m187.6 166.7c-2.2 2.8 3.8 2.8 5.4 2.4 2.4-2.7-3.9-2.7-5.4-2.4z"/><path d="m200.4 166.9c-2.8 2.5 5.5 3.5 5.7 1.5.2-1.9-4.5-1.8-5.7-1.5z"/><path d="m213 167.8c-2.2.2-1.8 3.5.3 3.3 2.1-.7 5.8.7 6.8-1.8-.1-3.4-5-1.3-7.1-1.5z"/><path d="m226.8 167.8c-1.2.9-.8 3.1.8 3.2 2.3-.3 6.5 1.6 7.5-1.2.7-2.9-6.6-2.3-8.3-2z"/><path d="m241.8 168.4c-2.8 3.3 4.7 2.8 6.4 2.6 2.7-3.3-4.8-3-6.4-2.6z"/><path d="m256.4 168.8c-2.7 3.1 5.6 2.5 7.1 2.3 2.2-3.5-4.7-2.2-6.5-2.6-.1.1-.3.2-.6.3z"/><path d="m272.1 168.6c-3.3 2.9 6.5 3.6 6.6 1.5.9-2-5.6-1.9-6.6-1.5z"/><path d="m289.2 168.8c-1.5.1-4-.4-3.9 1.8.9 3.5 9.2 0 3.9-1.8.1 0 .1 0 0 0z"/><path d="m295.6 169.1c-3.1 3 5.6 3.8 6.1 1.6.1-2.4-4.6-1.9-6.1-1.6z"/><path d="m294.7 158.2c-2.4.5.3 8.8 2.5 7.6 2.4-1.4-.5-4.6-.7-6.7-.2-.7-1.1-1.2-1.8-.9z"/><path d="m293.4 145.5c-2 .2-1.1 2.7-1.3 4.1.1 1.5-.5 4 1.7 4.1 2.3-.1 2.1-8.5-.4-8.2z"/><path d="m294.7 134.3c-1.3 1.4-1.9 8.6 1 5.1-.1-1.7 2.8-7.4-1-5.1z"/><path d="m300.4 123.7c-1.6 1.2-5.9 6.3-1.7 6.3 1.2-1.1 6.4-7.1 1.7-6.3z"/><path d="m310 117.6c-1.4 1.1-5 1.1-4.9 3.2 1.3 1.8 4.1-.9 5.8-1.3.9-.7.3-2.1-.9-1.9z"/><path d="m321.8 114.2c-1.6.5-4.3-.3-4.5 1.9.7 3.3 9.5-.2 4.5-1.9z"/><path d="m328.8 114.9c-.9 1.7 6.1 3.4 6.6 1.9 1.2-2.3-6.2-4.2-6.6-1.9z"/><path d="m339.6 118.4c-.7 2.5 3.2 2.4 4.5 3.8 6.3.1-3.2-6.4-4.5-3.8z"/><path d="m350.4 124.1c-1.8.8 2.5 7.3 4 5.8 1.5-1.1-.3-2.4-.9-3.5-.7-.9-1.5-3.5-3.1-2.3z"/><path d="m356.7 134.6c-1.4 1.1.4 2.5.8 3.7.4 1 .8 2.4 2.2 2 2.4-.5-1.4-7.4-3-5.7z"/><path d="m359.6 144.4c-1.9-.2-1.6 7.3.3 7 1.9.1 1.6-7.4-.3-7z"/><path d="m358.8 155.2c-1.3 0-1.2 1.4-1.3 2.3 0-.1 0-.1 0-.2.1 1.1-.5 2.2 0 3.2.6.9 2.1.5 2.3-.5.2-1.5.7-3.4-.1-4.7-.2 0-.5-.1-.9-.1.1 0 .1 0 0 0zm-1.2 2.5c0-.1 0-.1 0-.2z"/><path d="m355.4 163.3c-1 1.2-2.8 5.5.2 5.1 1.2-.9 2.9-5.2.4-5.4-.1.1-.3.1-.6.3z"/><path d="m360 167.4c-.5 1.6 5.9 2.3 5.7.5-.1-1.2-1.6-.8-2.5-.9-1 .1-2.8-1-3.2.4z"/><path d="m372.1 166c-1.9.1-1.6 2.9.2 2.8 1.7 0 7.4.5 5.3-2.5-1.7-.7-3.7-.2-5.5-.3z"/><path d="m388.1 165.6c-1.7.3-5.1-.7-5.2 1.8.5 2.4 3.8 1 5.4 1.2 1.9-.2 1.8-3.1-.2-3z"/><path d="m398.8 166c-1.4.3-3.7-.3-3.8 1.7.5 3.3 8.7-.2 3.8-1.7.1 0 .1 0 0 0z"/><path d="m402.1 158.5c-1.8.7-.5 2.7-.4 4 .2 1.2.2 3.3 1.9 3.2 1 0 1.6-1.1 1.2-2-.8-1.7-.2-5.1-2.4-5.4 0 .2-.2.2-.3.2zm-.4 4.2c0 .1 0 .2.1.3 0-.2-.1-.3-.1-.3z"/><path d="m399.5 147.4c-2 .5.2 7.3 2.2 6.4 2.1-.7-.1-7.2-2.2-6.4z"/><path d="m396.4 135.3c-1.4.2.1 5.9 1.6 5.1 1.4-.3-.1-5.3-1.3-5.2-.1.1-.2.1-.3.1z"/><path d="m394.1 126.5c-2.1.6.1 5.9 2 5.1 2-.6-.2-5.8-2-5.1z"/><path d="m391.9 117c-2.8.1-1.1 7.4 1.4 6.6 2-.2.7-7.3-1.4-6.6z"/><path d="m381.5 113.1c-2-.1-2.4 3.2-.4 3.5 1.9 0 4.9 2.2 5.7-.6.4-2.6-3.5-2.8-5.3-2.9z"/><path d="m368.2 111.6c-1.9 0-1.9 3 0 3 1.7-.1 6.3 1.2 5.1-2-1.1-1.3-3.2-.8-4.7-1.1-.1.1-.2.1-.4.1z"/><path d="m355.8 110.4c-1.1.6-.7 2.4.5 2.5 2-.3 5.6 2.1 6.7-.2.5-2.4-5.7-2.6-7.2-2.3zm1.4 2.6h.2c-.1 0-.2 0-.2 0z"/><path d="m344.6 108.7c-.3 2.2 2.4 1.6 3.7 1.9 1.2.3 3 1.4 3.6-.4.6-2.1-7-3.6-7.3-1.5z"/><path d="m333.5 107.9c.7 2.4 4.5 1.2 6.4 1.5.7 0 1.3-.6 1.3-1.4-.6-2.5-4.5-.8-6.4-1.5-.8 0-1.4.7-1.3 1.4zm1.5 1.4h.1s0 0-.1 0z"/><path d="m322.8 106.4c0 2.4 3.7 1.5 5.4 1.8 4.5-2.2-4.9-3.9-5.4-1.8z"/><path d="m311.3 104.4c-4.4 1.7 6.8 3.8 6.7 2-.3-2.4-4.8-1.8-6.7-2z"/><path d="m299.3 102.9c-2.9 3.3 4.9 3.4 6.6 3.1 2.8-3.1-4.9-3.1-6.6-3.1z"/><path d="m288.4 98.2c-3.3 2 1.6 4 3.2 5.1 1.9 1.1 3.6-1.9 1.6-3-1.4-.7-3.1-2.4-4.8-2.1z"/><path d="m274 93.5c-.5 2.6 4 2.6 5.6 3.7 1.5 1.5 4.6.9 2.6-1.3-2.2-.7-6.2-4.1-8.2-2.4z"/><path d="m260.9 88.2c-2.1 1.9 1.3 2.7 2.7 3.2 1.5.4 5.4 3 5.2-.2-1.1-1.5-6-3.4-7.9-3z"/><path d="m246.3 85.1c-2.6 1-.2 2.7 1.6 2.8 2.1.2 5.8 3 7.2.8.3-2.2-7.1-3.3-8.8-3.6z"/><path d="m229 81c-2.7.9.2 2.7 1.8 2.6 2.2-.1 6.2 2.5 7.5.5.1-1.9-7.3-2.8-9.1-3.3-.1.2-.2.2-.2.2z"/><path d="m212.2 79c-1.2-.1-1.4 1.9-.2 2.1 2-.2 7.2 1.5 8-.6-.8-2-5.8-1-7.8-1.5zm2.9.2h.2c-.1.1-.2 0-.2 0z"/><path d="m198.4 77.7c-4.5 1.9 7.5 3.5 7 1.4-1-2.1-4.8-.7-6.8-1.5 0 .1-.1.1-.2.1zm2.1.2h.2c0 .1-.1 0-.2 0z"/><path d="m191 76.5c-2 .2-3.9.2-5.9.3-5.8 3.8 12.2 3 5.9-.3z"/><path d="m176 76.4c-2 .6-5-.6-6.4 1 .4 2.4 4.7.8 6.5 1 1.3 0 1.3-2-.1-2z"/><path d="m164.1 76.3c-.3.1-.6.1-.9.2.1 0 .2 0 .3-.1-1.7.6-7.6-.7-6.2 2.5 1.4 1.1 11.8-.2 7-2.6.1 0 0 0-.2 0zm-5.7 3h-.1zm-.2-.1c.1 0 .1 0 0 0zm0 0c-.1 0-.1 0-.1 0z"/><path d="m151.1 77.1c-2 .7-5.8-.7-6.7 1.5.9 2.2 4.8.4 6.7.6 1.3 0 1.4-2.1 0-2.1z"/><path d="m136.9 77.2c-2 .5-5.9-.5-6.3 2.2 0 .9.8 1.7 1.7 1.6 2-.7 6 .7 6.4-2.2 0-.9-1-2-1.8-1.6z"/><path d="m125.1 79.9c-2.1.7-6.3-.6-7.2 1.9.8 2.6 5.2.3 7.2.6 1.6 0 1.7-2.5.1-2.6-.1.1-.1.1-.1.1z"/><path d="m110.5 82c-1.7.8-5.8.4-5.6 3 .2.7 1 1.1 1.7.9 1.7-.9 5.9-.4 5.7-3-.2-.8-1.2-1.3-1.8-.9z"/><path d="m97.6 85.1c-1.2 1-4.3 1.2-4 3.2 1.3 3.4 10-3.9 4-3.2z"/><path d="m89.5 89.5c-1.1 1.1-4.3 1.8-3.5 3.8 1.7 2.2 8.9-4.1 3.5-3.8z"/><path d="m89.9 93.5c-1.3 1.2 5.4 5.1 5.8 3.2 1-1.6-5-5-5.8-3.2z"/><path d="m97.9 98.1c-1.6 1.2-6 1.7-5.2 4.4 1.9 1.9 4.5-1.5 6.5-2.1 1.5-.9.2-3.2-1.3-2.3z"/><path d="m89.2 103.1c-1.5 1.2-6.6 3.5-3 5.3 2.8.2 8.8-6.1 3-5.3z"/><path d="m77.2 145.4c-.5.6-1.7 4.8-.3 4.9.6 0 .8-.6.7-1.1v.1c-.2-1.2 1.4-3.6-.4-3.9.3-.1.1 0 0 0z"/><path d="m76.1 154c.3 1.6-.5 4.9 1.7 5 1.8-.9.2-3.3.5-4.9 0-1.3-2.2-1.5-2.2-.1z"/><path d="m78.5 161.1c-1.1.7-.1 1.8.2 2.7.5 1 .6 2.7 2 2.5 1.8-.4-.7-6.2-2.2-5.2z"/><path d="m83.3 169.2c-1.8 1.4 3.7 7.1 2.9 3.1-1.4-.7-1.1-3.7-2.9-3.1z"/><path d="m89.3 175.2c-1.8 1.7 4.3 5 4.9 2.6.4-1.2-1.1-1.6-2-1.8-1.1-.4-1.8-2-2.9-.8z"/><path d="m98.6 179.3c-.3 2.1 4.4 2 5.7 1.4 1.4-2.6-3.2-1.8-4.6-2.4-.5.3-.9.5-1.1 1z"/><path d="m113.4 177.4c-1.4.6-3.4.9-4.1 2.2-.4 1.7 1.6 1.9 2.7 1.2-.1 0-.2.1-.3.1 1.9-.3 5.1-3.1 1.7-3.5zm-1.9.7c-.1 0-.2.1-.2.1s.1-.1.2-.1z"/><path d="m121.3 173.4c-.9 1-4.5 3.2-1.6 4 2.1-.2 5.6-5.2 1.6-4z"/><path d="m124.7 163.8c.1 1.6-1.9 3.8-.3 4.9 2.4 1.1 2.6-2.8 3-4.2.6-1.7-2.4-2.4-2.7-.7z"/><path d="m127.3 153.4c-.6 1.2-1.4 4.6.6 4.8 2.2-.1 2.2-6.9-.6-4.8z"/><path d="m126.7 143c-1.7.5-.5 4.9 1.2 4.5 1.7-.6.4-4.7-1.2-4.5z"/><path d="m121.5 136.9c-1.2 1.2 2.3 4.5 3.4 3.4 1.1-1.4-2.1-4.5-3.4-3.4z"/><path d="m80.2 137.6c-.8 1.4-3.2 3.8-1.7 5.3 2.1.8 2.4-2.8 3.5-3.9.7-1-.9-2.3-1.8-1.4z"/><path d="m87.3 130.2c-1.6.6-5.5 5.4-1.5 4.3.8-1.2 5.5-4.3 1.5-4.3z"/><path d="m96.9 126.8c-1.3.5-4.4.3-4.2 2.2.8 1.8 3.1-.2 4.5-.2 1-.2.9-2.1-.3-2z"/><path d="m103.1 127.2c-1.2 0-1.2 1.8 0 1.8.9 0 2-.2 2.8.1 1.1.3 1.5-1.3.5-1.7-1.1-.4-2.2-.3-3.3-.2z"/><path d="m111.2 128.9c-1.9.8-.2 2.5 1.1 2.7-.1 0-.2-.1-.3-.1 4.6 2.3 3.1-2.4-.5-2.5-.1-.1-.2-.1-.3-.1z"/><path d="m300.8 135.1c-1 1.2-2.8 5.4-.8 6.3.5.1 1.3-.1 1.4-.8-.3-1.7 2.7-5.1-.1-5.6-.1-.1-.3 0-.5.1z"/><path d="m299.9 145c.1 1.6-.5 3.4.1 4.9 2.4.9 1-3.6 1.5-4.9 0-1-1.6-1-1.6 0z"/><path d="m302.2 153.3c-2.6.8 2.9 10.4 3.1 5.1-1.4-1.1-1.3-5.4-3.1-5.1z"/><path d="m307.7 163.6c-1.5 1.4 1.6 3.1 2.1 4.5.7 1.5 3.6 1.4 2.4-.6-1.6-1-2.5-4.2-4.5-3.9zm2.5 2s.1 0 0 0z"/><path d="m313.7 170.4c-.1 1.9 4.7 3.8 6.4 4.6 2.6-.2 1-2.4-.7-2.6-1.7-.1-4.5-3.2-5.7-2z"/><path d="m324.1 173.6c-2.3 2.7 5.9 3.5 5.9 1.1-.4-2.3-3.4-.8-5.1-1.5 0 0 0 0-.1 0-.1.1-.5.2-.7.4z"/><path d="m341.5 169.4c-1.2.4-2.2 1.1-3.4 1.7.1-.1.2-.1.3-.1-1.2.6-3.6.6-3.1 2.5.9 3.4 10.3-2.6 6.5-4-.1-.2-.2-.1-.3-.1z"/><path d="m308.2 127.4c-1.2 1-4.8 2.2-3.7 4.1 1.7 1 2.9-1.9 4.5-2.3 1-.6.3-2.3-.8-1.8zm-1 3.1c-.1 0 0 0 0 0z"/><path d="m316.3 123.6c-1.4.7-4.4.5-4.4 2.6.6 2.4 9-1.3 4.4-2.6.2-.1.1-.1 0 0z"/><path d="m323.2 122.7c-1 .5-.8 1.9.2 2.3 1.5-.1 4.1 1.7 4.8-.3.3-2.2-3-2-4.5-2.3-.1.2-.3.2-.5.3z"/><path d="m333.4 125.1c-2.8 1.6 1 3.1 2.6 3.6.7.4 1.6 1.1 2.3.3 1.5-1.9-1.9-3.1-3.3-3.6h.1c-.4-.2-.9-.5-1.4-.5 0 .1-.1.2-.3.2z"/><path d="m341.5 130.9c-1.2 1.3.8 2.4 1.4 3.5.8.8 1.3 2.8 2.8 2.1 2-.9-2.7-7.1-4.2-5.6z"/><path d="m347.8 139.9c-1.4.5-.5 2.2-.3 3.3.2.9.3 3.1 1.8 2.7 1.7 0 .1-6.3-1.2-5.9-.1-.1-.2-.1-.3-.1z"/><path d="m349.1 152.4c.2 1.3-.3 2.7.1 3.8 2.4 2.2 2.4-2.4 2.3-3.9 0-1.6-2.4-1.4-2.4.1z"/><path d="m346.9 161.2c0 1.7-2.6 4-1.4 5.3 2.1 1.1 4.5-8 1.4-5.3z"/></svg>