<svg enable-background="new 0 0 420 420" viewBox="0 0 420 420" xmlns="http://www.w3.org/2000/svg"><path d="m0 0h420v420h-420z" fill="#d3d3d3"/><g fill="#eaeaea"><path d="m178.8 157.3c-5.5 0-11.4-.1-16.8.6l.7-.1c-8.7 2.3-109.2 4.5-74.1 24.4-1.2.5-2.2 1.3-3.5 1.8l.7-.2c-4.5 2.1-9.1 5-13.6 7.2-3-7-8.3-12.7-12.6-18.9 2.5-.2 6.2-1.3 5.3-4.8-.3-2.2-.2-5.7-3.3-5.9-11.2 1.3-23.1 1.3-34.3 2.7-5.4-2.5-3.6 11.1.9 7.8 5.1.9 10.5.3 15.7.4 5.4 8.2 8.7 17.6 13.4 26.2-7.1 4.4-14.6 8.2-21.9 12.2-3.9 1.5-4.4 4-4.4 7.7-6.7.2-9.2 1.7-8.7 8.8-.6 5.4 5.9 5.1 9.6 4.8 1 6.2-.5 13.4 1.5 19.2 8.2 5.4 21.2.9 30.7 1.2 1 1.3 3.5.6 3.3-1.3 1.3-1.6.3-4.2-1.7-4.5-13.7-48.2 63.8-61.1 61.6-8.4.2 3.9-7.4 12.3.4 12.1 52.6-1.4 105.4 1.8 158 .8.6 3.1 5.6 2.4 5.5-.7-.4-4.4-1.8-8.8-2.9-13.1-14-36.7 34.4-54.3 55.6-27.5 6.7 9 11.1 22.5 5 32.8-1.6 1.6-5.5 3-3.1 5.8 14.9 1.7 31.8 2.5 47 .2 9.6.5 2.5-13.3 1.2-18.2-2.6-6-3.3-12.9-6.1-19v.1c-1.3-3.1-2.4-6.2-3.7-9.3 2.5-8.9-48.7-9-57.2-12.6h.1c-12.9-1.9-26-3.6-39.1-4-32.7-19.3-71.5-26.1-109.2-28.3z"/><path d="m94.4 209.5c-3.1.1-5.8.4-8.6 1.6-3.2-2.9-8 2.6-10.4 4.7-7.8 10-8.1 21.4-1.5 32.1-1.7 2.2 1 4.2 2.2 5.9 6.6 6.8 16.9 8.9 26 7.3h-.3c18.2-2.8 23.6-27 13.8-40.4l.1.2c-1.5-1.9-2.8-3.3-4.7-4.7l-.3.4c-4.7-3.8-10.2-6.7-16.3-7.1z"/><path d="m314.7 204.4c-4.3.3-8.3 1.2-12.3 2.6h.1c-19.2 8.3-12.9 38.5 3 47 17.7 8.3 40.2-4.5 36-25.3v.1c-.9-9.6-7.2-19.2-16.4-22.8l.2.1c-3.1-1.6-5.4-2.2-8.5-2.1-.6.5-1.3.4-2.1.4z"/></g><path d="m65.4 162.2c-.9 1.1-.3 9.1 2 8.6 3.2-.5.9-5 1-7.2 0-1.4-1.9-2.5-3-1.4z"/><path d="m61 170.9c-.8 0-1.6.8-1.6 1.6.3 2.6 3.9 1.3 5.7 1.7 2.1 0 2.1-3.2 0-3.2-1.4.1-2.7-.2-4.1-.1z"/><path d="m63 175.4c-2.2.9 3 8.5 4.7 7.3 1.7-1.3-.4-3-1.1-4.3-1-1.1-1.6-4-3.6-3z"/><path d="m69.7 184.3c-2.7 1 3.6 9.3 5.3 7.8 2.6-2.1-2.1-5.1-3-7.2-.6-.9-1.5-1.1-2.3-.6z"/><path d="m48.1 174c-2.8 1.1.4 5.6 1.3 7.3 1.2.7 2.7-.4 2.4-1.7-1.1-1.7-1-5.1-3.3-5.6-.1-.1-.3-.1-.4 0z"/><path d="m51.5 184c-2.2 1.3 1.3 7.3 3.5 5.9 2.3-1.2-1.3-7.6-3.5-5.9z"/><path d="m56.5 193.8c-2.4 1.2 1.9 9.4 3.8 5-.2-1.7-1.3-6.3-3.8-5z"/><path d="m40.5 170.8c-1.5 0-1.6 2.4 0 2.4 1.3-.2 3.8.7 3.9-1.2-.1-1.9-2.7-1-3.9-1.2z"/><path d="m34.5 171c-1.8.4-3.8 0-5.4 1-3.2 5.5 12 2.1 5.4-1z"/><path d="m22.8 165.5c.4 1.8-.6 5.3 1.9 5.6 2.7-.3 1.3-3.8 1.4-5.6-.1-2.1-3.3-2-3.3 0z"/><path d="m33.9 161.9c-1.5.2-4.2-.3-4.4 1.7.2 2.3 2.9 1.3 4.4 1.3 1.9 0 1.9-2.9 0-3z"/><path d="m40.5 163c.3 3.7 13.1 1.6 6.9-1.5-2.1.7-6.4-1.5-6.9 1.5z"/><path d="m55.6 162.2c.1 2.4 5.9 2.6 6 .1.1-2.3-6.1-2.5-6-.1z"/><path d="m52.6 201.3c-1.8 1.6-6.9 2.1-6.3 5.1 2.3 1.9 5.2-2.2 7.7-2.8 1.6-.9.1-3.4-1.4-2.3z"/><path d="m39.8 208.3c-1.4 1.3-5.7 2.3-4.5 4.8 1.8 2.3 4.3-1.1 6.2-1.8 1.9-1 .2-4.3-1.7-3z"/><path d="m31.5 213.7c.2 1.5-.4 3.2.5 4.5 3.1 1.8 2.3-2.8 2.3-4.5 0-1.8-2.8-1.8-2.8 0z"/><path d="m29.5 219.2c-1.8.6-5.5-.4-5.7 2.1-.2 3.6 11.7.1 5.7-2.1.1 0 .1 0 0 0z"/><path d="m22 225.2c.6 1.8-1.1 5.8 1.5 6.3 2.6-.6.9-4.3 1.2-6.3.1-1.8-2.9-1.9-2.7 0z"/><path d="m26 231.2c-2.8 3.3 6.5 4.6 6.5 1.5.2-2.2-5.3-2.2-6.5-1.5z"/><path d="m31.8 238.1c.2 1.4-.2 3 .7 4.2 1 1.1 2.9.2 2.9-1.2-.3-1.6.7-4.5-1.8-4.7-1 .1-1.8.8-1.8 1.7z"/><path d="m32.7 245.8c.4 1.9-1.3 5.7 1.3 6.2 2.6-.5.9-4.3 1.5-6.2 0-1.8-2.8-1.8-2.8 0z"/><path d="m38.6 252.1c-2.6 2.8 7 4.1 6.8 1.5-.5-2.4-4.1-1.2-5.9-1.8-.3-.2-.7 0-.9.3z"/><path d="m56.8 250.7c-2.2.8-6.8-.5-7.4 2.2.6 3.1 5.2.5 7.4 1 2 0 2.1-3.2 0-3.2z"/><path d="m68.1 250.2c-2.5.1-8.1.9-4.7 4.3 2.9 1.2 10.4-1.8 4.8-4.2 0-.1 0-.1-.1-.1z"/><path d="m63.8 238.9c.5 1.7-.5 5.4 1.8 5.6 1.6-1.1-.2-3.9.1-5.7 0-1.4-2-1.2-1.9.1zm2.2 2.9c.1.1.1.1 0 0z"/><path d="m65.6 225.8c-.1 1-.7 2.1-.3 3.1.5 1 2 .8 2.2-.2.1-1.2 1.3-3.2-.4-3.7-.6-.1-1.2.1-1.5.8z"/><path d="m71.6 212.9c-1.4 1-4.5 4.9-2.6 6.4 2.5 1 2.8-2.9 4.2-4.2.5-1-.2-2.2-1.3-2.2-.1-.1-.2-.1-.3 0z"/><path d="m82.1 204.7c-1.4.9-5 1.5-4 3.8 1.3 2.4 9.3-3.4 4-3.8z"/><path d="m91.5 202.5c-1.7 0-1.7 2.6 0 2.6 1.7-.3 4.8 1 5.2-1.3-.4-2.3-3.5-1-5.2-1.3z"/><path d="m103.6 203.9c-3.1 3 4 3.6 5.8 4 4-2.7-3.7-4.8-5.8-4z"/><path d="m115.6 209.6c-1.8 1.7 3.6 6.8 5.3 5.2 1.7-1.5-3.7-7-5.3-5.2z"/><path d="m125.5 220.7c-1.8.6-.4 2.9-.4 4.3.4 1.3.1 4 2.1 3.6 1.9 0 .3-8.4-1.4-7.9 0-.1-.1-.1-.3 0z"/><path d="m126.2 235.6c-.8 1.7-1.9 8.2 1.7 6.3.8-1.7 1.9-8.1-1.7-6.3z"/><path d="m124.4 247.4c-.2 1.6-2.1 3.8-.5 5 2.3.9 2.4-2.9 3.1-4.3.5-1.7-2.2-2.3-2.6-.7z"/><path d="m128.1 251.2c.8 2.9 5.2 1.1 7.6 1.5.8 0 1.4-.6 1.4-1.4-.9-2.8-5.2-1-7.5-1.6-.8 0-1.5.7-1.5 1.5z"/><path d="m144.8 248.7c-1.6.3-4.8-.6-4.7 1.7 1.2 2.6 5.4.3 7.7 1 1.9.5 2.6-2.2.7-2.6-1.2-.2-2.5-.1-3.7-.1z"/><path d="m153.5 249.3c-.3 2.7 10.5 2.6 6.1-.4-1.9.3-5.1-1.6-6.1.4z"/><path d="m166.9 248.6c-3 2.9 6.2 3.3 6.4 1.4.2-2.4-4.9-1.4-6.4-1.4zm1.6-.1h.2s-.1 0-.2 0z"/><path d="m180.7 248.2c-2.2 2.8 3.8 2.8 5.4 2.4 2.4-2.7-3.9-2.7-5.4-2.4z"/><path d="m193.5 248.4c-2.8 2.5 5.5 3.5 5.7 1.5.2-1.9-4.5-1.8-5.7-1.5z"/><path d="m206.1 249.3c-2.2.2-1.8 3.5.3 3.3 2.1-.7 5.8.7 6.8-1.8-.1-3.4-5-1.3-7.1-1.5z"/><path d="m219.9 249.3c-1.2.9-.8 3.1.8 3.2 2.3-.3 6.5 1.6 7.5-1.2.7-2.9-6.6-2.3-8.3-2z"/><path d="m234.9 249.9c-2.8 3.3 4.7 2.8 6.4 2.6 2.7-3.3-4.8-3-6.4-2.6z"/><path d="m249.5 250.3c-2.7 3.1 5.6 2.5 7.1 2.3 2.2-3.5-4.7-2.2-6.5-2.6-.1.1-.3.2-.6.3z"/><path d="m265.2 250.1c-3.3 2.9 6.5 3.6 6.6 1.5.9-2-5.6-1.9-6.6-1.5z"/><path d="m282.3 250.3c-1.5.1-4-.4-3.9 1.8.9 3.5 9.2 0 3.9-1.8.1 0 .1 0 0 0z"/><path d="m288.7 250.6c-3.1 3 5.6 3.8 6.1 1.6.1-2.4-4.6-1.9-6.1-1.6z"/><path d="m287.8 239.7c-2.4.5.3 8.8 2.5 7.6 2.4-1.4-.5-4.6-.7-6.7-.2-.7-1.1-1.2-1.8-.9z"/><path d="m286.5 227c-2 .2-1.1 2.7-1.3 4.1.1 1.5-.5 4 1.7 4.1 2.3-.1 2.1-8.5-.4-8.2z"/><path d="m287.8 215.8c-1.3 1.4-1.9 8.6 1 5.1-.1-1.7 2.8-7.4-1-5.1z"/><path d="m293.5 205.2c-1.6 1.2-5.9 6.3-1.7 6.3 1.2-1.1 6.4-7.1 1.7-6.3z"/><path d="m303.1 199.1c-1.4 1.1-5 1.1-4.9 3.2 1.3 1.8 4.1-.9 5.8-1.3.9-.7.3-2.1-.9-1.9z"/><path d="m314.9 195.7c-1.6.5-4.3-.3-4.5 1.9.7 3.3 9.5-.2 4.5-1.9z"/><path d="m321.9 196.4c-.9 1.7 6.1 3.4 6.6 1.9 1.2-2.3-6.2-4.2-6.6-1.9z"/><path d="m332.7 199.9c-.7 2.5 3.2 2.4 4.5 3.8 6.3.1-3.2-6.4-4.5-3.8z"/><path d="m343.5 205.6c-1.8.8 2.5 7.3 4 5.8 1.5-1.1-.3-2.4-.9-3.5-.7-.9-1.5-3.5-3.1-2.3z"/><path d="m349.8 216.1c-1.4 1.1.4 2.5.8 3.7.4 1 .8 2.4 2.2 2 2.4-.5-1.4-7.4-3-5.7z"/><path d="m352.7 225.9c-1.9-.2-1.6 7.3.3 7 1.9.1 1.6-7.4-.3-7z"/><path d="m351.9 236.7c-1.3 0-1.2 1.4-1.3 2.3 0-.1 0-.1 0-.2.1 1.1-.5 2.2 0 3.2.6.9 2.1.5 2.3-.5.2-1.5.7-3.4-.1-4.7-.2 0-.5-.1-.9-.1.1 0 .1 0 0 0zm-1.2 2.5c0-.1 0-.1 0-.2z"/><path d="m348.5 244.8c-1 1.2-2.8 5.5.2 5.1 1.2-.9 2.9-5.2.4-5.4-.1.1-.3.1-.6.3z"/><path d="m353.1 248.9c-.5 1.6 5.9 2.3 5.7.5-.1-1.2-1.6-.8-2.5-.9-1 .1-2.8-1-3.2.4z"/><path d="m365.2 247.5c-1.9.1-1.6 2.9.2 2.8 1.7 0 7.4.5 5.3-2.5-1.7-.7-3.7-.2-5.5-.3z"/><path d="m381.2 247.1c-1.7.3-5.1-.7-5.2 1.8.5 2.4 3.8 1 5.4 1.2 1.9-.2 1.8-3.1-.2-3z"/><path d="m391.9 247.5c-1.4.3-3.7-.3-3.8 1.7.5 3.3 8.7-.2 3.8-1.7.1 0 .1 0 0 0z"/><path d="m395.2 240c-1.8.7-.5 2.7-.4 4 .2 1.2.2 3.3 1.9 3.2 1 0 1.6-1.1 1.2-2-.8-1.7-.2-5.1-2.4-5.4 0 .2-.2.2-.3.2zm-.4 4.2c0 .1 0 .2.1.3 0-.2-.1-.3-.1-.3z"/><path d="m392.6 228.9c-2 .5.2 7.3 2.2 6.4 2.1-.7-.1-7.2-2.2-6.4z"/><path d="m389.5 216.8c-1.4.2.1 5.9 1.6 5.1 1.4-.3-.1-5.3-1.3-5.2-.1.1-.2.1-.3.1z"/><path d="m387.2 208c-2.1.6.1 5.9 2 5.1 2-.6-.2-5.8-2-5.1z"/><path d="m385 198.5c-2.8.1-1.1 7.4 1.4 6.6 2-.2.7-7.3-1.4-6.6z"/><path d="m374.6 194.6c-2-.1-2.4 3.2-.4 3.5 1.9 0 4.9 2.2 5.7-.6.4-2.6-3.5-2.8-5.3-2.9z"/><path d="m361.3 193.1c-1.9 0-1.9 3 0 3 1.7-.1 6.3 1.2 5.1-2-1.1-1.3-3.2-.8-4.7-1.1-.1.1-.2.1-.4.1z"/><path d="m348.9 191.9c-1.1.6-.7 2.4.5 2.5 2-.3 5.6 2.1 6.7-.2.5-2.4-5.7-2.6-7.2-2.3zm1.4 2.6h.2c-.1 0-.2 0-.2 0z"/><path d="m337.7 190.2c-.3 2.2 2.4 1.6 3.7 1.9 1.2.3 3 1.4 3.6-.4.6-2.1-7-3.6-7.3-1.5z"/><path d="m326.6 189.4c.7 2.4 4.5 1.2 6.4 1.5.7 0 1.3-.6 1.3-1.4-.6-2.5-4.5-.8-6.4-1.5-.8 0-1.4.7-1.3 1.4zm1.5 1.4h.1s0 0-.1 0z"/><path d="m315.9 187.9c0 2.4 3.7 1.5 5.4 1.8 4.5-2.2-4.9-3.9-5.4-1.8z"/><path d="m304.4 185.9c-4.4 1.7 6.8 3.8 6.7 2-.3-2.4-4.8-1.8-6.7-2z"/><path d="m292.4 184.4c-2.9 3.3 4.9 3.4 6.6 3.1 2.8-3.1-4.9-3.1-6.6-3.1z"/><path d="m281.5 179.7c-3.3 2 1.6 4 3.2 5.1 1.9 1.1 3.6-1.9 1.6-3-1.4-.7-3.1-2.4-4.8-2.1z"/><path d="m267.1 175c-.5 2.6 4 2.6 5.6 3.7 1.5 1.5 4.6.9 2.6-1.3-2.2-.7-6.2-4.1-8.2-2.4z"/><path d="m254 169.7c-2.1 1.9 1.3 2.7 2.7 3.2 1.5.4 5.4 3 5.2-.2-1.1-1.5-6-3.4-7.9-3z"/><path d="m239.4 166.6c-2.6 1-.2 2.7 1.6 2.8 2.1.2 5.8 3 7.2.8.3-2.2-7.1-3.3-8.8-3.6z"/><path d="m222.1 162.5c-2.7.9.2 2.7 1.8 2.6 2.2-.1 6.2 2.5 7.5.5.1-1.9-7.3-2.8-9.1-3.3-.1.2-.2.2-.2.2z"/><path d="m205.3 160.5c-1.2-.1-1.4 1.9-.2 2.1 2-.2 7.2 1.5 8-.6-.8-2-5.8-1-7.8-1.5zm2.9.2h.2c-.1.1-.2 0-.2 0z"/><path d="m191.5 159.2c-4.5 1.9 7.5 3.5 7 1.4-1-2.1-4.8-.7-6.8-1.5 0 .1-.1.1-.2.1zm2.1.2h.2c0 .1-.1 0-.2 0z"/><path d="m184.1 158c-2 .2-3.9.2-5.9.3-5.8 3.8 12.2 3 5.9-.3z"/><path d="m169.1 157.9c-2 .6-5-.6-6.4 1 .4 2.4 4.7.8 6.5 1 1.3 0 1.3-2-.1-2z"/><path d="m157.2 157.8c-.3.1-.6.1-.9.2.1 0 .2 0 .3-.1-1.7.6-7.6-.7-6.2 2.5 1.4 1.1 11.8-.2 7-2.6.1 0 0 0-.2 0zm-5.7 3h-.1zm-.2-.1c.1 0 .1 0 0 0zm0 0c-.1 0-.1 0-.1 0z"/><path d="m144.2 158.6c-2 .7-5.8-.7-6.7 1.5.9 2.2 4.8.4 6.7.6 1.3 0 1.4-2.1 0-2.1z"/><path d="m130 158.7c-2 .5-5.9-.5-6.3 2.2 0 .9.8 1.7 1.7 1.6 2-.7 6 .7 6.4-2.2 0-.9-1-2-1.8-1.6z"/><path d="m118.2 161.4c-2.1.7-6.3-.6-7.2 1.9.8 2.6 5.2.3 7.2.6 1.6 0 1.7-2.5 0-2.5z"/><path d="m103.6 163.5c-1.7.8-5.8.4-5.6 3 .2.7 1 1.1 1.7.9 1.7-.9 5.9-.4 5.7-3-.2-.8-1.2-1.3-1.8-.9z"/><path d="m90.7 166.6c-1.2 1-4.3 1.2-4 3.2 1.3 3.4 10-3.9 4-3.2z"/><path d="m82.6 171c-1.1 1.1-4.3 1.8-3.5 3.8 1.7 2.2 8.9-4.1 3.5-3.8z"/><path d="m83 175c-1.3 1.2 5.4 5.1 5.8 3.2 1-1.6-5-5-5.8-3.2z"/><path d="m91 179.6c-1.6 1.2-6 1.7-5.2 4.4 1.9 1.9 4.5-1.5 6.5-2.1 1.5-.9.2-3.2-1.3-2.3z"/><path d="m82.3 184.6c-1.5 1.2-6.6 3.5-3 5.3 2.8.2 8.8-6.1 3-5.3z"/><path d="m70.3 226.9c-.5.6-1.7 4.8-.3 4.9.6 0 .8-.6.7-1.1v.1c-.2-1.2 1.4-3.6-.4-3.9.3-.1.1 0 0 0z"/><path d="m69.2 235.5c.3 1.6-.5 4.9 1.7 5 1.8-.9.2-3.3.5-4.9 0-1.3-2.2-1.5-2.2-.1z"/><path d="m71.6 242.6c-1.1.7-.1 1.8.2 2.7.5 1 .6 2.7 2 2.5 1.8-.4-.7-6.2-2.2-5.2z"/><path d="m76.4 250.7c-1.8 1.4 3.7 7.1 2.9 3.1-1.4-.7-1.1-3.7-2.9-3.1z"/><path d="m82.4 256.7c-1.8 1.7 4.3 5 4.9 2.6.4-1.2-1.1-1.6-2-1.8-1.1-.4-1.8-2-2.9-.8z"/><path d="m91.7 260.8c-.3 2.1 4.4 2 5.7 1.4 1.4-2.6-3.2-1.8-4.6-2.4-.5.3-.9.5-1.1 1z"/><path d="m106.5 258.9c-1.4.6-3.4.9-4.1 2.2-.4 1.7 1.6 1.9 2.7 1.2-.1 0-.2.1-.3.1 1.9-.3 5.1-3.1 1.7-3.5zm-1.9.7c-.1 0-.2.1-.2.1s.1-.1.2-.1z"/><path d="m114.4 254.9c-.9 1-4.5 3.2-1.6 4 2.1-.2 5.6-5.2 1.6-4z"/><path d="m117.8 245.3c.1 1.6-1.9 3.8-.3 4.9 2.4 1.1 2.6-2.8 3-4.2.6-1.7-2.4-2.4-2.7-.7z"/><path d="m120.4 234.9c-.6 1.2-1.4 4.6.6 4.8 2.2-.1 2.2-6.9-.6-4.8z"/><path d="m119.8 224.5c-1.7.5-.5 4.9 1.2 4.5 1.7-.6.4-4.7-1.2-4.5z"/><path d="m114.6 218.4c-1.2 1.2 2.3 4.5 3.4 3.4 1.1-1.4-2.1-4.5-3.4-3.4z"/><path d="m73.3 219.1c-.8 1.4-3.2 3.8-1.7 5.3 2.1.8 2.4-2.8 3.5-3.9.7-1-.9-2.3-1.8-1.4z"/><path d="m80.4 211.7c-1.6.6-5.5 5.4-1.5 4.3.8-1.2 5.5-4.3 1.5-4.3z"/><path d="m90 208.3c-1.3.5-4.4.3-4.2 2.2.8 1.8 3.1-.2 4.5-.2 1-.2.9-2.1-.3-2z"/><path d="m96.2 208.7c-1.2 0-1.2 1.8 0 1.8.9 0 2-.2 2.8.1 1.1.3 1.5-1.3.5-1.7-1.1-.4-2.2-.3-3.3-.2z"/><path d="m104.3 210.4c-1.9.8-.2 2.5 1.1 2.7-.1 0-.2-.1-.3-.1 4.6 2.3 3.1-2.4-.5-2.5-.1-.1-.2-.1-.3-.1z"/><path d="m293.9 216.6c-1 1.2-2.8 5.4-.8 6.3.5.1 1.3-.1 1.4-.8-.3-1.7 2.7-5.1-.1-5.6-.1-.1-.3 0-.5.1z"/><path d="m293 226.5c.1 1.6-.5 3.4.1 4.9 2.4.9 1-3.6 1.5-4.9 0-1-1.6-1-1.6 0z"/><path d="m295.3 234.8c-2.6.8 2.9 10.4 3.1 5.1-1.4-1.1-1.3-5.4-3.1-5.1z"/><path d="m300.8 245.1c-1.5 1.4 1.6 3.1 2.1 4.5.7 1.5 3.6 1.4 2.4-.6-1.6-1-2.5-4.2-4.5-3.9zm2.5 2s.1 0 0 0z"/><path d="m306.8 251.9c-.1 1.9 4.7 3.8 6.4 4.6 2.6-.2 1-2.4-.7-2.6-1.7-.1-4.5-3.2-5.7-2z"/><path d="m317.2 255.1c-2.3 2.7 5.9 3.5 5.9 1.1-.4-2.3-3.4-.8-5.1-1.5 0 0 0 0-.1 0-.1.1-.5.2-.7.4z"/><path d="m334.6 250.9c-1.2.4-2.2 1.1-3.4 1.7.1-.1.2-.1.3-.1-1.2.6-3.6.6-3.1 2.5.9 3.4 10.3-2.6 6.5-4-.1-.2-.2-.1-.3-.1z"/><path d="m301.3 208.9c-1.2 1-4.8 2.2-3.7 4.1 1.7 1 2.9-1.9 4.5-2.3 1-.6.3-2.3-.8-1.8zm-1 3.1c-.1 0 0 0 0 0z"/><path d="m309.4 205.1c-1.4.7-4.4.5-4.4 2.6.6 2.4 9-1.3 4.4-2.6.2-.1.1-.1 0 0z"/><path d="m316.3 204.2c-1 .5-.8 1.9.2 2.3 1.5-.1 4.1 1.7 4.8-.3.3-2.2-3-2-4.5-2.3-.1.2-.3.2-.5.3z"/><path d="m326.5 206.6c-2.8 1.6 1 3.1 2.6 3.6.7.4 1.6 1.1 2.3.3 1.5-1.9-1.9-3.1-3.3-3.6h.1c-.4-.2-.9-.5-1.4-.5 0 .1-.1.2-.3.2z"/><path d="m334.6 212.4c-1.2 1.3.8 2.4 1.4 3.5.8.8 1.3 2.8 2.8 2.1 2-.9-2.7-7.1-4.2-5.6z"/><path d="m340.9 221.4c-1.4.5-.5 2.2-.3 3.3.2.9.3 3.1 1.8 2.7 1.7 0 .1-6.3-1.2-5.9-.1-.1-.2-.1-.3-.1z"/><path d="m342.2 233.9c.2 1.3-.3 2.7.1 3.8 2.4 2.2 2.4-2.4 2.3-3.9 0-1.6-2.4-1.4-2.4.1z"/><path d="m340 242.7c0 1.7-2.6 4-1.4 5.3 2.1 1.1 4.5-8 1.4-5.3z"/></svg>